<svg id="Calque_1" data-name="Calque 1" xmlns="http://www.w3.org/2000/svg" width="71.0112mm" height="27.0703mm" viewBox="0 0 201.2916 76.7347"><defs><style>.cls-1{fill:#878787;}.cls-2{fill:#282828;}</style></defs><path class="cls-1" d="M301.96,412.9188a26.2188,26.2188,0,0,1-2.85.6247c-1.7352.1921-3.4845.2546-5.2253.4026a1.3254,1.3254,0,0,0-.7688.3354c-1.9638,1.9573-3.7991,4.0591-5.8859,5.8728-1.8762,1.6308-4.0293,2.9417-6.0466,4.4124-1.8546,1.3521-3.6631,2.7692-5.5453,4.0812-1.242.8659-2.5753,1.6015-3.8731,2.3866-3.3114,2.0034-6.5973,4.0511-9.9473,5.9881-3.1556,1.8246-6.3781,3.534-9.5748,5.2874-2.5593,1.4038-5.1115,2.8213-7.6907,4.1877-1.723.9127-3.4907,1.7408-5.2325,2.6184-.7273.3665-1.4393.7634-2.1586,1.1459-1.709.9089-3.3955,1.8641-5.1336,2.7136-1.9066.9319-3.8754,1.736-5.79,2.6519-1.8392.88-3.6388,1.842-5.4655,2.7486-1.6829.8352-3.3787,1.6446-4.9943,2.4292-1.2-2.3059-2.1318-4.51-3.4275-6.4756a51.3164,51.3164,0,0,0-4.7351-5.964c-1.8649-2.0754-3.84-4.0664-5.9012-5.9467a54.5745,54.5745,0,0,0-5.1921-4.0622c-1.2-.8538-1.3449-1.1816-.1647-2.0916,2.4135-1.861,4.81-3.7612,7.3552-5.43,3.0153-1.9772,6.1361-3.8058,9.2936-5.55,2.2988-1.27,4.7419-2.2763,7.1007-3.4406,1.9021-.9389,3.7636-1.96,5.664-2.9022,1.0338-.5127,2.1133-.933,3.1685-1.4032,1.877-.8362,3.7417-1.701,5.6288-2.5137,3.458-1.4892,6.9277-2.9511,10.3942-4.4207,2.4606-1.0431,4.9158-2.0995,7.3883-3.1135,1.9972-.8192,4.0167-1.5841,6.0264-2.373,2.2259-.8737,4.4485-1.7555,6.6785-2.6186,2.4611-.9526,4.9236-1.9023,7.3962-2.8245,1.2372-.4614,2.5178-.811,3.7393-1.3081a4.0378,4.0378,0,0,0,1.3642-1.0233,66.0949,66.0949,0,0,1,4.6546-5.1121,17.9176,17.9176,0,0,1,7.2311-4.0751,9.8905,9.8905,0,0,1,9.6651,2.2621c1.1179,1.0028,2.1242,2.13,3.181,3.2-.3357.42-.6954.8238-1.0019,1.2643a22.1021,22.1021,0,0,0-2.7744,4.1623c-1.3824,3.5157-.75,7.1273-.0233,10.7232.3754,1.8581,1.0681,3.0941,3.193,2.9233C301.7669,412.6855,301.8664,412.84,301.96,412.9188Z" transform="translate(-195.5431 -384.0706)"/><path class="cls-2" d="M301.96,412.9188c-.0935-.0791-.193-.2333-.28-.2264-2.1249.1708-2.8176-1.0652-3.193-2.9233-.7265-3.5959-1.3591-7.2075.0233-10.7232a22.1021,22.1021,0,0,1,2.7744-4.1623c.3065-.44.6662-.8439,1.0019-1.2643,2.6432-.9648,5.2437-2.0775,7.9419-2.8491a55.5072,55.5072,0,0,1,7.12-1.36c3.2618-.4841,6.5325-1.0369,9.817-1.1953a42.687,42.687,0,0,1,7.2417.5885,36.36,36.36,0,0,1,5.6176,1.0475,30.7712,30.7712,0,0,1,4.42,1.9333,14.3366,14.3366,0,0,1,2.14,1.2c1.1164.7846,2.151.1273,3.1126-.2046,3.2929-1.1368,6.5317-2.4288,9.8037-3.6271,2.9974-1.0978,5.9687-2.2979,9.03-3.18a64.0482,64.0482,0,0,1,8.2521-1.7086,14.8809,14.8809,0,0,1,11.916,3.11,19.9879,19.9879,0,0,1,5.54,6.4972,21.8906,21.8906,0,0,1,2.394,7.1341,17.5715,17.5715,0,0,1-.1417,6.147,20.651,20.651,0,0,1-2.9964,7.34c-2.6231,3.722-5.7812,6.7442-10.49,7.8652a41.7638,41.7638,0,0,1-11.0332,1.1124c-4.0408-.1244-8.0909-.2777-12.11-.6851-3.6721-.3722-7.31-1.0918-10.9594-1.675q-5.511-.8807-11.0159-1.7989c-2.0414-.3437-4.0708-.7578-6.1107-1.1105-2.5473-.44-5.1027-.8344-7.6495-1.2778-2.4424-.4252-4.8724-.9235-7.3187-1.3238-2.2736-.3721-4.5672-.6221-6.8411-.993-1.53-.25-3.0422-.611-4.56-.9323C304.2566,413.4305,303.109,413.1712,301.96,412.9188Z" transform="translate(-195.5431 -384.0706)"/></svg>