<svg id="Calque_1" data-name="Calque 1" xmlns="http://www.w3.org/2000/svg" width="91.8313mm" height="37.8494mm" viewBox="0 0 260.3093 107.2896"><defs><style>.cls-1{fill:#878787;}.cls-2{fill:#bc0606;}.cls-3{fill:#fc3d3d;}.cls-4{fill:#868888;}.cls-5{fill:#6d6d6c;}.cls-6{fill:#878786;}.cls-7{fill:#464646;}.cls-8{fill:#bdbdbd;}.cls-9{fill:#8b8884;}.cls-10{fill:#787166;}.cls-11{fill:#706d69;}.cls-12{fill:#83ecfd;}.cls-13{fill:#d6f8fe;}.cls-14{fill:#6c6c6c;}.cls-15{fill:#6b6b6b;}.cls-16{fill:#ababab;}</style></defs><path class="cls-1" d="M192.0858,408.7565c-.711-2.36-1.4969-4.7-2.1184-7.0829-1.6325-6.2591-2.4761-12.5982-1.2253-19.03a30.7542,30.7542,0,0,1,1.7456-5.3157,9.2125,9.2125,0,0,1,5.6311-5.1943,56.4967,56.4967,0,0,1,13.8462-3.0806c14.011-1.6868,28.0887-1.6867,42.1588-1.3344,9.1654.23,18.33.7534,27.4754,1.4175,5.875.4266,11.7272,1.255,17.563,2.0893,2.5941.3708,4.4874,2.106,6.0327,4.1719-.1671.2366-.4863.4783-.4782.7085.1151,3.2849.287,6.5678.412,9.8525.023.6043.21.8645.8393.8291.7532-.0423,1.51-.0174,2.2656-.0216a2.8669,2.8669,0,0,1-.39.5519,24.1392,24.1392,0,0,1-8.6429,4.4026c-4.0958,1.36-8.277,2.4744-12.3355,3.933a72.8794,72.8794,0,0,0-7.8918,3.5909c-2.0214,1.0127-3.9441,2.2218-5.9107,3.3437-.69-.0083-1.382-.0574-2.069-.0179-3.9344.2264-7.87.4426-11.8007.7219q-7.68.5457-15.3539,1.1847-8.2648.6837-16.5231,1.4477c-5.7011.5355-11.3974,1.1225-17.0936,1.7083-1.27.1306-2.53.35-3.7946.5288,3.0077-.1026,5.99-.0736,8.9716-.1142,1.6255-.022,3.25-.1441,4.8737-.2521q8.6372-.5743,17.2728-1.1716c2.3432-.1608,4.6873-.313,7.0276-.51q6.5985-.5548,13.1926-1.161c2.0981-.1915,4.19-.4527,6.2884-.6395,2.2573-.2009,4.5189-.3517,6.7787-.5243-1.0721,1.0023-2.1218,2.03-3.2243,2.9977-.7248.6362-1.5259,1.1856-2.2929,1.7739-1.3338.2244-2.6613.4992-4.0025.6643-5.61.691-11.2189,1.4012-16.839,2.0044s-11.248,1.1833-16.8855,1.5939c-4.5662.3325-9.1528.3778-13.7286.588a63.6664,63.6664,0,0,1-14.2521-.8C195.2082,412.1792,192.8878,411.5228,192.0858,408.7565Z" transform="translate(-147.2546 -367.532)"/><path class="cls-2" d="M311.0384,393.0024a43.2727,43.2727,0,0,1,1.7483-4.7993c1.1337-2.2828,2.6152-2.5427,4.4165-.6525,2.4425,2.563,4.6681,5.3325,6.9774,8.0214.3336.3885.6147.8219,1,1.3419.2033-.3325.3757-.5717.5053-.8322,5.6432-11.3456,14.4674-19.1122,26.6277-22.6769a43.0736,43.0736,0,0,1,54.4905,33.1771,42.7842,42.7842,0,0,1,.1152,15.4408,1.8614,1.8614,0,0,1-.1882.4276,17.1432,17.1432,0,0,0-6.7-8.8349l-.2689-.286.0154.0091-.4895-.2526.0275-.0074a5.87,5.87,0,0,0-.7121-1.0276,17.7569,17.7569,0,0,0-6.7753-3.9317,28.2009,28.2009,0,0,0-17.8775.3614c-9.9657,3.2707-17.9005,9.2494-23.0008,18.5353-3.6731,6.6875-5.0042,13.6593-1.4533,20.9205a1.1543,1.1543,0,0,1-.2937,1.0749c-1.704,1.1692-3.4624,2.2594-5.2034,3.3749-.165-.111-.3236-.233-.4958-.3313a43.5154,43.5154,0,0,1-14.2415-12.9032c-.5117-.7288-.9982-1.4752-1.4964-2.2135l-.3924.1748c.3634,1.0975.7036,2.2034,1.0972,3.29.3383.9342.8162,1.8237,1.0913,2.7737.4,1.3828-.0006,1.9239-1.41,2.1323-1.4976.2214-3.0037.3929-4.4936.6563-4.5079.7967-9.0884,1.2774-13.3483,3.1521-1.144.5034-2.0566-.1282-2.425-1.4955.3579-1.9027.6051-3.8347,1.0994-5.7015.7521-2.8409,1.8425-5.5988,2.4921-8.4592,1.4842-6.5359,2.8462-13.1011,4.1475-19.6761a68.6863,68.6863,0,0,0,1.3857-16.3465,11.6461,11.6461,0,0,0-.5576-2.6682,1.4062,1.4062,0,0,0-1.5109-1.0889,28.0714,28.0714,0,0,1-3.2089-.2189C311.4865,393.4353,311.2688,393.1623,311.0384,393.0024Zm79.8916,13.33c-.05.0456.0691-.0149.1112-.1093a20.7015,20.7015,0,0,0-.1879-17.6876c-3.1679-6.9628-8.7543-11.4959-15.5191-14.7269a20.0349,20.0349,0,0,0-2.3827-.7817c.1384.29.1523.3887.2072.4248a52.232,52.232,0,0,1,11.6451,10.1577,25.43,25.43,0,0,1,6.36,16.3477C391.1847,402.1164,391.0107,404.2775,390.93,406.3324Zm-71.1665-8.0194-.4085.0337c.0969.8975.239,1.7928.2832,2.6929a71.1011,71.1011,0,0,1-1.77,17.7849,224.39,224.39,0,0,1-7.8194,27.9387c-.105.3054-.1472.6323-.2626,1.1438l5.9977-2.4985-.1517-.4059-4.6547,1.5212c.107-.3824.1709-.6836.2746-.9706a180.4369,180.4369,0,0,0,7.0923-24.6743,75.5025,75.5025,0,0,0,1.9417-17.8964C320.2337,401.4219,319.9441,399.8693,319.7635,398.313Zm79.008,2.12.2875-.1993a16.7826,16.7826,0,0,0-1.5877-2.165c-.2006-.2046-.946-.1271-1.2683.0849a2.4259,2.4259,0,0,0-.94,2.6327c.1883,1.115,1.1012,2.0192,1.9171,1.9757C398.0515,402.7154,398.7786,401.6515,398.7715,400.4329Zm-6.455-12.8027c-.0229,1.4777,1.0949,2.9554,2.26,2.9169,1.0717-.0354,1.3918-.8621,1.4794-1.7156.1348-1.3141-1.149-2.9412-2.2475-2.9861C392.933,385.81,392.3336,386.5267,392.3165,387.63Z" transform="translate(-147.2546 -367.532)"/><path class="cls-3" d="M192.0858,408.7565c.802,2.7663,3.1224,3.4227,5.5224,3.8547a63.6664,63.6664,0,0,0,14.2521.8c4.5758-.21,9.1624-.2555,13.7286-.588,5.6375-.4106,11.2644-.9906,16.8855-1.5939s11.2288-1.3134,16.839-2.0044c1.3412-.1651,2.6687-.44,4.0025-.6643a3.413,3.413,0,0,1-.4585.796,36.0109,36.0109,0,0,0-6.7376,8.9343c-3.4077,6.4806-4.9431,13.2509-3.1007,20.5287.273,1.0786.4957,2.17.7415,3.2555-.789.2394-1.5847.4583-2.3655.7215q-5.354,1.8045-10.7008,3.63-4.1643,1.4169-8.3261,2.8417c1.7186-2.5305,1.4565-5.1984.4761-7.8752-.9349-2.5526-2.4607-4.7448-5.32-5.1012a15.3748,15.3748,0,0,0-5.8809.4607c-4.2436,1.1825-8.4384,2.5767-12.5734,4.1-3.8828,1.4306-7.6644,3.1357-11.4885,4.7246-1.7992.7476-2.0573,1.5012-1.1252,3.2367-2.2271.3869-4.4448.8426-6.6831,1.1475a44.4081,44.4081,0,0,1-17.7773-.941,6.6185,6.6185,0,0,1-1.4732-.48c-2.7539-1.5175-5.9077-1.103-8.8225-1.8642a19.521,19.521,0,0,1,1.6169-38.06,20.6793,20.6793,0,0,1,8.2991.3095,47.113,47.113,0,0,0,18.9884.3A12.5532,12.5532,0,0,0,192.0858,408.7565Z" transform="translate(-147.2546 -367.532)"/><path class="cls-3" d="M311.0384,393.0024c.23.16.4481.4329.6932.46a28.0714,28.0714,0,0,0,3.2089.2189,1.4062,1.4062,0,0,1,1.5109,1.0889,11.6461,11.6461,0,0,1,.5576,2.6682,68.6863,68.6863,0,0,1-1.3857,16.3465c-1.3013,6.575-2.6633,13.14-4.1475,19.6761-.65,2.86-1.74,5.6183-2.4921,8.4592-.4943,1.8668-.7415,3.7988-1.0993,5.7015-3.341.8752-6.642,1.98-10.0329,2.57-4.568.7945-9.1972,1.2721-13.8149,1.74a87.6863,87.6863,0,0,1-16.9182-.4c-2.2914-.2112-4.5716-.5441-6.8569-.8216l-2.7656-7.6524c1.8709-.65,3.7445-1.2922,5.612-1.9516,2.87-1.0135,5.7031-2.1465,8.6121-3.031a35.8444,35.8444,0,0,0,9.7358-4.3684,15.4925,15.4925,0,0,0,1.997-1.92l.0546-.1025-.0569.1a4.68,4.68,0,0,0-.9383.1284q-9.0553,3.1544-18.101,6.337c-2.5021.8829-4.9866,1.8157-7.4791,2.7258a23.8923,23.8923,0,0,1,.0761-16.9321A34.8927,34.8927,0,0,1,269.78,407.5984c2.047-.2775,4.1122-.46,6.1376-.8494q10.6553-2.0472,21.2856-4.2225a9.5648,9.5648,0,0,0,6.0519-3.5478c1.3092-1.7756,2.44-3.6826,3.649-5.5317Z" transform="translate(-147.2546 -367.532)"/><path class="cls-4" d="M400.0305,413.6154a17.1432,17.1432,0,0,1,6.7,8.8349,22.7069,22.7069,0,0,1-.2023,12.27,34.5961,34.5961,0,0,1-10.9211,16.2471,39.48,39.48,0,0,1-17.0332,8.845c-6.4109,1.4989-12.7352,1.4263-18.73-1.7669-.6316-.3365-1.2344-.7269-1.85-1.0917l-4.2722-4.019c-.3763-.771-.7585-1.5392-1.1279-2.3135a20.211,20.211,0,0,1-.7111-15.3253c2.2972-7.2088,6.8421-12.86,12.8328-17.3639a38.675,38.675,0,0,1,17.5443-7.5362,26.2844,26.2844,0,0,1,10.8652.3386,60.722,60.722,0,0,1,6.1894,2.3442l-.0274.0074.4894.2526-.0153-.0091Zm-1.64,23.4559c.4248-1.4027.9722-2.7814,1.2536-4.2123a12.7264,12.7264,0,0,0-9.24-15.1434c-6.0915-1.6041-11.838-.4212-17.2987,2.5152a4.5055,4.5055,0,0,0-1.1.4263,75.4439,75.4439,0,0,0-6.1748,4.6606,23.9581,23.9581,0,0,0-7.9278,13.8163,12.731,12.731,0,0,0,7.07,14.0675c4.53,2.1548,9.2354,1.8982,13.9066.6364a30.4058,30.4058,0,0,0,14.7294-9.1358A21.7731,21.7731,0,0,0,398.39,437.0713Zm-25.0427-18.9484c1.3348.0264,2.5426-1.0508,2.3776-1.9657a1.7521,1.7521,0,0,0-1.1121-1.07c-.7342-.1993-2.3221,1.21-2.1349,1.8619A3.6459,3.6459,0,0,0,373.3477,418.1229Zm30.11,4.0774c-1.0369-.0079-2.403,1.0626-2.1773,1.7867a1.8439,1.8439,0,0,0,1.2043,1.0455,1.9285,1.9285,0,0,0,2.082-1.7917C404.6085,422.3723,404.1478,422.1271,403.4575,422.2Zm-48.38,28.5077c1.5538.011,2.54-.74,2.425-1.7075a1.6216,1.6216,0,0,0-1.0073-1.1155c-.9277-.2-2.35,1.0362-2.1853,1.8567C354.398,450.18,354.9275,450.5308,355.0775,450.708Zm27.9781,6.2242c1.396.003,2.6641-1.0283,2.4907-1.8638a1.6538,1.6538,0,0,0-1.1552-.9712c-.9578-.1491-2.2221.9759-2.0825,1.8229C382.3815,456.3627,382.8985,456.7324,383.0556,456.9322Z" transform="translate(-147.2546 -367.532)"/><path class="cls-5" d="M399.315,413.0785a60.722,60.722,0,0,0-6.1894-2.3442,26.2844,26.2844,0,0,0-10.8652-.3386,38.675,38.675,0,0,0-17.5443,7.5362c-5.9907,4.5037-10.5356,10.1551-12.8328,17.3639a20.211,20.211,0,0,0,.7111,15.3253c.3694.7743.7516,1.5425,1.1277,2.3129-.6988-.573-1.3973-1.1456-2.1716-1.78l-3.9186,2.8378c-2.6911,1.6277-5.365,3.2846-8.0763,4.8779a129.92,129.92,0,0,1-29.4323,13.1034,60.8255,60.8255,0,0,1-21.699,2.7125c-13.8566-1.044-23.5826-8.1421-29.8679-20.285-.7865-1.5194-1.4695-3.0923-2.2-4.64l-1.9287-5.5216-.6665-2.1635c-.2459-1.0855-.4686-2.1769-.7416-3.2555-1.8424-7.2778-.307-14.0481,3.1007-20.5287a36.0109,36.0109,0,0,1,6.7376-8.9343,3.413,3.413,0,0,0,.4585-.796c.767-.5883,1.5681-1.1377,2.2929-1.7739,1.1025-.9677,2.1522-1.9954,3.2242-2.9979q1.1146-.6006,2.23-1.2008c1.9666-1.1219,3.8893-2.331,5.9107-3.3437a72.8794,72.8794,0,0,1,7.8918-3.5909c4.0585-1.4586,8.24-2.5727,12.3355-3.933a24.1392,24.1392,0,0,0,8.6429-4.4026,2.8669,2.8669,0,0,0,.39-.5519c1.1869.1717,1.5293-.3867,1.4545-1.5072-.1321-1.9773-.1655-3.9611-.24-5.9423,2.9126,2.57,3.7407,5.6541,2.1233,8.3445a24.4205,24.4205,0,0,1-2.1595,2.6881.9178.9178,0,0,0-.3407.0919,26.617,26.617,0,0,1-8.7121,4.3042c-2.4034.7884-4.9207,1.2442-7.2968,2.0988-3.73,1.3414-7.3862,2.8878-11.0636,4.3721-.2536.1024-.4237.4108-.6327.6234l-2.1563.9714-7.4291,4.7879a34.8927,34.8927,0,0,0-12.7721,16.4452,23.8875,23.8875,0,0,0-.0755,16.9315q.2821,1.0408.5632,2.0827,1.3828,3.8262,2.7656,7.6526c.9909,1.8618,1.8784,3.7876,2.99,5.5739,5.1,8.1917,12.3276,13.3,21.951,14.8347,8.3268,1.3276,16.4211.0468,24.3981-2.2916a122.9025,122.9025,0,0,0,25.7352-11.1654c2.9437-1.6592,5.7782-3.5116,8.6626-5.2758,1.741-1.1155,3.4994-2.2057,5.2034-3.3749a1.1543,1.1543,0,0,0,.2937-1.0749c-3.5509-7.2612-2.22-14.233,1.4533-20.9205,5.1-9.2859,13.0351-15.2646,23.0008-18.5353a28.2009,28.2009,0,0,1,17.8775-.3614,17.7569,17.7569,0,0,1,6.7753,3.9317A5.87,5.87,0,0,1,399.315,413.0785Z" transform="translate(-147.2546 -367.532)"/><path class="cls-2" d="M196.4562,448.8137c-.9321-1.7355-.674-2.4891,1.1252-3.2367,3.8241-1.5889,7.6057-3.294,11.4885-4.7246,4.135-1.5236,8.33-2.9178,12.5734-4.1a15.3748,15.3748,0,0,1,5.8809-.4607c2.8594.3564,4.3852,2.5486,5.32,5.1012.98,2.6768,1.2425,5.3447-.4761,7.8752l-.9561,1.4366c-1.6253.9764-3.2554,1.9447-4.87,2.9383a1.7025,1.7025,0,0,0-.5416.6077q-3.2577,5.7754-6.4965,11.5616c-.7577,1.3465-1.9123,1.7784-3.0572,1.1683-1.238-.66-1.53-1.86-.779-3.24q1.312-2.4112,2.6368-4.8156.03-.1683.0608-.3362l-.2579.1219q-5.6158,3.9663-11.2315,7.933c-1.0415.736-2.0742,1.4846-3.1209,2.2132-1.3221.92-2.6445.7812-3.4617-.3472-.82-1.1319-.55-2.4308.7876-3.4024,3.0953-2.2483,6.214-4.4646,9.3234-6.6938a1.6131,1.6131,0,0,0,.3843-.282c.2986-.4064.57-.8326.8523-1.2511-.5266-.004-1.1626-.2034-1.5625.0195-2.9178,1.6257-5.7974,3.3207-8.6671,5.0306-.751.4474-1.4162,1.0363-2.1355,1.5393-1.5781,1.1038-2.9034,1.02-3.764-.2194-.87-1.2541-.3862-2.5717,1.2749-3.6451,2.9132-1.8824,5.8255-3.7675,8.7-5.7081,1.0609-.7162,2.0135-1.5925,3.0155-2.3958l-.2079-.3675a9.5543,9.5543,0,0,0-1.4984.4567q-4.9392,2.4174-9.85,4.8921c-1.5339.7768-2.7962.5136-3.4726-.8182a2.36,2.36,0,0,1,1.2989-3.2578c2.6929-1.3024,5.4008-2.5738,8.1024-3.8581l4.7917-2.7116-.1577-.3891a8.6573,8.6573,0,0,0-1.2686.2832q-2.1134.8054-4.2,1.6808c-.7132.3-1.3958.6734-2.0922,1.0136Z" transform="translate(-147.2546 -367.532)"/><path class="cls-6" d="M279.3657,401.8391c.209-.2126.3791-.521.6327-.6234,3.6774-1.4843,7.3337-3.0307,11.0636-4.3721,2.3761-.8546,4.8934-1.31,7.2968-2.0988a26.617,26.617,0,0,0,8.7121-4.3042.9178.9178,0,0,1,.3407-.0919q-.2534,1.5494-.5069,3.0986c-1.21,1.8488-2.34,3.7558-3.6493,5.5314a9.5648,9.5648,0,0,1-6.0519,3.5478q-10.6313,2.1684-21.2856,4.2225c-2.0254.3891-4.0906.5719-6.1376.8494q3.7144-2.394,7.4292-4.7879l5.85-.603-.0225-.3684Z" transform="translate(-147.2546 -367.532)"/><path class="cls-7" d="M307.4478,379.3161c.0748,1.9812.1082,3.965.24,5.9423.0748,1.12-.2676,1.6789-1.4545,1.5072-.7554.0042-1.5124-.0207-2.2656.0216-.6291.0354-.8163-.2248-.8393-.8291-.125-3.2847-.2969-6.5676-.412-9.8525-.0081-.23.3111-.4719.4782-.7085,1.3047,0,2.6092,0,4.019,0C307.2923,376.7106,307.37,378.0134,307.4478,379.3161Z" transform="translate(-147.2546 -367.532)"/><path class="cls-2" d="M231.4121,450.7044l.9561-1.4366q4.1629-1.4211,8.3261-2.8417,5.3487-1.82,10.7008-3.63c.7808-.2632,1.5765-.4821,2.3655-.7215q.3334,1.0818.6666,2.1635a3.5272,3.5272,0,0,0-.8232.0843c-2.2457.783-4.4922,1.565-6.72,2.3971a20.624,20.624,0,0,0-2.0556,1.0286A47.9281,47.9281,0,0,0,232.1,450.5534,4.2846,4.2846,0,0,1,231.4121,450.7044Z" transform="translate(-147.2546 -367.532)"/><path class="cls-3" d="M244.8285,447.7483a20.624,20.624,0,0,1,2.0556-1.0286c2.2277-.8321,4.4742-1.6141,6.72-2.3971a3.5272,3.5272,0,0,1,.8232-.0843l1.9287,5.5216c-2.2037-.435-4.4018-.902-6.6131-1.2947C248.1136,448.1759,246.4672,447.9837,244.8285,447.7483Z" transform="translate(-147.2546 -367.532)"/><path class="cls-2" d="M347.6319,453.9916l3.9186-2.8378c.7743.6346,1.4728,1.2072,2.1716,1.78q2.1367,2.0106,4.2724,4.02A31.4446,31.4446,0,0,1,347.6319,453.9916Z" transform="translate(-147.2546 -367.532)"/><path class="cls-8" d="M271.0626,402.5877q-1.1148.6-2.23,1.2008c-2.26.1728-4.5213.3236-6.7786.5245-2.0985.1868-4.19.448-6.2884.6395q-6.5943.6023-13.1926,1.161c-2.34.1968-4.6844.349-7.0276.51q-8.636.5928-17.2728,1.1716c-1.6232.108-3.2482.23-4.8737.2521-2.9815.0406-5.9639.0116-8.9716.1142,1.2646-.1787,2.525-.3982,3.7946-.5288,5.6962-.5858,11.3925-1.1728,17.0936-1.7083q8.2568-.7757,16.5231-1.4477,7.6734-.6348,15.3539-1.1847c3.9308-.2793,7.8663-.4955,11.8007-.7219C269.6806,402.53,270.3728,402.5794,271.0626,402.5877Z" transform="translate(-147.2546 -367.532)"/><path class="cls-9" d="M390.93,406.3324c.0807-2.0549.2547-4.216.2335-6.3753a25.43,25.43,0,0,0-6.36-16.3477,52.232,52.232,0,0,0-11.6451-10.1577c-.0549-.0361-.0688-.1344-.2072-.4248a20.0349,20.0349,0,0,1,2.3827.7817c6.7648,3.231,12.3512,7.7641,15.5191,14.7269a20.7015,20.7015,0,0,1,.1879,17.6876C390.9991,406.3175,390.8805,406.378,390.93,406.3324Z" transform="translate(-147.2546 -367.532)"/><path class="cls-10" d="M319.7635,398.313c.1806,1.5563.47,3.1089.5226,4.67a75.5025,75.5025,0,0,1-1.9417,17.8964,180.4369,180.4369,0,0,1-7.0923,24.6743c-.1037.287-.1676.5882-.2746.9706l4.6547-1.5212.1517.4059-5.9977,2.4985c.1154-.5115.1576-.8384.2626-1.1438a224.39,224.39,0,0,0,7.8194-27.9387,71.1011,71.1011,0,0,0,1.77-17.7849c-.0442-.9-.1863-1.7954-.2832-2.6929Z" transform="translate(-147.2546 -367.532)"/><path class="cls-11" d="M398.7715,400.4329c.0071,1.2186-.72,2.2825-1.5919,2.329-.8159.0435-1.7288-.8607-1.9171-1.9757a2.4259,2.4259,0,0,1,.94-2.6327c.3223-.212,1.0677-.29,1.2683-.0849a16.7826,16.7826,0,0,1,1.5877,2.165Z" transform="translate(-147.2546 -367.532)"/><path class="cls-11" d="M392.3165,387.63c.0171-1.1035.6165-1.8206,1.4918-1.7848,1.0985.0449,2.3823,1.672,2.2475,2.9861-.0876.8535-.4077,1.68-1.4794,1.7156C393.4114,390.5856,392.2936,389.1079,392.3165,387.63Z" transform="translate(-147.2546 -367.532)"/><path class="cls-2" d="M257.4959,443.0578q-.2812-1.0416-.5632-2.0827c2.4919-.9095,4.9764-1.8423,7.4785-2.7252q9.0426-3.1911,18.101-6.337a4.68,4.68,0,0,1,.9383-.1284l.0023.0025a15.4925,15.4925,0,0,1-1.997,1.92,35.8444,35.8444,0,0,1-9.7358,4.3684c-2.909.8845-5.742,2.0175-8.6121,3.031C261.24,441.7656,259.3668,442.4079,257.4959,443.0578Z" transform="translate(-147.2546 -367.532)"/><path class="cls-12" d="M398.39,437.0713a21.7731,21.7731,0,0,1-4.7819,7.6308,30.4058,30.4058,0,0,1-14.7294,9.1358c-4.6712,1.2618-9.3768,1.5184-13.9066-.6364a12.731,12.731,0,0,1-7.07-14.0675,23.9581,23.9581,0,0,1,7.9278-13.8163,75.4439,75.4439,0,0,1,6.1748-4.6606,4.4921,4.4921,0,0,1,1.1-.426,18.1,18.1,0,0,0-1.2016,8.2568,11.8552,11.8552,0,0,0,6.0876,9.4051c4.8576,2.71,9.98,2.5306,15.14,1.0308C394.9137,438.4059,396.6392,437.6944,398.39,437.0713Z" transform="translate(-147.2546 -367.532)"/><path class="cls-13" d="M398.39,437.0713c-1.7512.6231-3.4767,1.3346-5.2585,1.8525-5.16,1.5-10.2828,1.6793-15.14-1.0308a11.8552,11.8552,0,0,1-6.0876-9.4051,18.1,18.1,0,0,1,1.2016-8.2568c5.4606-2.9367,11.2071-4.12,17.2986-2.5155a12.7264,12.7264,0,0,1,9.24,15.1434C399.3626,434.29,398.8152,435.6686,398.39,437.0713Z" transform="translate(-147.2546 -367.532)"/><path class="cls-14" d="M373.3477,418.1229a3.6459,3.6459,0,0,1-.8694-1.1735c-.1872-.652,1.4007-2.0612,2.1349-1.8619a1.7521,1.7521,0,0,1,1.1121,1.07C375.89,417.0721,374.6825,418.1493,373.3477,418.1229Z" transform="translate(-147.2546 -367.532)"/><path class="cls-14" d="M403.4575,422.2c.69-.0732,1.151.172,1.109,1.04a1.9285,1.9285,0,0,1-2.082,1.7917,1.8439,1.8439,0,0,1-1.2043-1.0455C401.0545,423.2629,402.4206,422.1924,403.4575,422.2Z" transform="translate(-147.2546 -367.532)"/><path class="cls-15" d="M355.0775,450.708c-.15-.1772-.6795-.5276-.7676-.9663-.1648-.82,1.2576-2.0572,2.1853-1.8567a1.6216,1.6216,0,0,1,1.0073,1.1155C357.6176,449.9682,356.6313,450.719,355.0775,450.708Z" transform="translate(-147.2546 -367.532)"/><path class="cls-15" d="M383.0556,456.9322c-.1571-.2-.6741-.57-.747-1.0121-.14-.847,1.1247-1.972,2.0825-1.8229a1.6538,1.6538,0,0,1,1.1552.9712C385.72,455.9039,384.4516,456.9352,383.0556,456.9322Z" transform="translate(-147.2546 -367.532)"/><path class="cls-16" d="M279.3657,401.8391h3.6714l.0225.3684-5.85.603Z" transform="translate(-147.2546 -367.532)"/></svg>