<svg id="Calque_1" data-name="Calque 1" xmlns="http://www.w3.org/2000/svg" width="70.7901mm" height="26.8757mm" viewBox="0 0 200.665 76.183"><defs><style>.cls-1{fill:#5d5d5d;}.cls-2{fill:#ff781d;}</style></defs><path class="cls-1" d="M302.76,410.9548c-2.3749.2925-4.7523.5666-7.122.8958a1.8849,1.8849,0,0,0-1.1157.5477c-3.5319,4.25-7.9045,7.5278-12.3866,10.6644-12.5169,8.7593-25.8954,16.0665-39.448,23.0562-8.0838,4.1692-16.2914,8.0994-24.4442,12.1354-.17.0839-.35.1465-.5983.2493-4.1361-9.8021-11.5693-16.6783-20.06-22.8991.6444-.6413,1.2167-1.2762,1.8553-1.8357a66.0075,66.0075,0,0,1,14.1527-9.1192c8.0588-4.0356,16.1482-8.0405,24.4085-11.6376,11.0421-4.8085,22.26-9.2155,33.4031-13.792a13.3216,13.3216,0,0,1,1.5688-.5852,18.2363,18.2363,0,0,0,9.8766-6.5936,15.5315,15.5315,0,0,1,8.1806-5.3863c4.9126-1.3347,9.7493.7231,12.7716,5.33a3.3688,3.3688,0,0,1-.483.6463,9.963,9.963,0,0,0-3.5925,6.3895,22.1919,22.1919,0,0,0,.72,9.4112c.3352,1.211.6223,2.3348,2.2254,2.2367C302.6961,410.6673,302.7309,410.8552,302.76,410.9548Z" transform="translate(-197.5857 -382.3206)"/><path class="cls-2" d="M302.76,410.9548c-.0294-.1-.0642-.2875-.0873-.286-1.6031.0981-1.89-1.0257-2.2254-2.2367a22.1919,22.1919,0,0,1-.72-9.4112,9.963,9.963,0,0,1,3.5925-6.3895,3.3688,3.3688,0,0,0,.483-.6463c.8962-.3176,1.7868-.65,2.6876-.9519a82.2686,82.2686,0,0,1,19.9329-4.1707c6.25-.48,12.3342-.0067,18.1629,2.4621a8.0293,8.0293,0,0,1,2.1309,1.0709c1.5273,1.3086,3.0105,1.2483,4.8262.5373,5.2316-2.0487,10.5-4.0176,15.8194-5.8248a47.2412,47.2412,0,0,1,13.288-2.7767c3.7353-.1519,6.8562,1.3221,9.717,3.4538a18.9666,18.9666,0,0,1,7.5968,12.5594,19.16,19.16,0,0,1-4.6159,16.1908c-3.7021,4.3277-8.56,6.1371-14.1075,6.6128a89.1348,89.1348,0,0,1-23.6558-1.5778c-6.4963-1.18-13.0294-2.157-19.541-3.2544-5.8041-.9783-11.6-2.0042-17.4018-2.9981q-7.1168-1.219-14.24-2.3988A8.7154,8.7154,0,0,0,302.76,410.9548Z" transform="translate(-197.5857 -382.3206)"/></svg>