<svg id="Calque_1" data-name="Calque 1" xmlns="http://www.w3.org/2000/svg" viewBox="0 0 158.7 195.28"><defs><style>.cls-1{fill:#fff;opacity:0.5;}.cls-2{fill:none;stroke:#3565ae;stroke-miterlimit:10;stroke-width:15px;}.cls-3{fill:#3565ae;}.cls-4{font-size:142px;fill:#143b65;font-family:Boogaloo-Regular, Boogaloo;letter-spacing:-0.19em;}</style></defs><circle class="cls-1" cx="81.73" cy="114.98" r="71.85"/><circle class="cls-2" cx="79.35" cy="114.98" r="71.85"/><rect class="cls-3" x="67.8" y="23.09" width="22.52" height="19.04"/><rect class="cls-3" x="48.17" width="61.79" height="15.51" rx="6.85"/><path class="cls-3" d="M259.94,160.19h9a0,0,0,0,1,0,0v19a0,0,0,0,1,0,0h-9a8.5,8.5,0,0,1-8.5-8.5v-2A8.5,8.5,0,0,1,259.94,160.19Z" transform="translate(-76.06 -237.64) rotate(40.1)"/><path class="cls-3" d="M390.69,158.11h9a0,0,0,0,1,0,0v19a0,0,0,0,1,0,0h-9a8.5,8.5,0,0,1-8.5-8.5v-2A8.5,8.5,0,0,1,390.69,158.11Z" transform="translate(551.38 -65.9) rotate(139.9)"/><text class="cls-4" transform="translate(41.32 160.35)">1</text></svg>