<?xml version="1.0" encoding="utf-8"?>
<!-- Generator: Adobe Illustrator 24.3.0, SVG Export Plug-In . SVG Version: 6.00 Build 0)  -->
<svg version="1.1" id="Capa_1" xmlns="http://www.w3.org/2000/svg" xmlns:xlink="http://www.w3.org/1999/xlink" x="0px" y="0px"
	 viewBox="0 0 469.3 469.3" style="enable-background:new 0 0 469.3 469.3;" xml:space="preserve">
<style type="text/css">
	.st0{fill:#FFFFFF;}
</style>
<g>
	<g>
		<g>
			<path class="st0" d="M160,0h-21.3C132.8,0,128,4.8,128,10.7V128H10.7C4.8,128,0,132.8,0,138.7V160c0,5.9,4.8,10.7,10.7,10.7H160
				c5.9,0,10.7-4.8,10.7-10.7V10.7C170.7,4.8,165.9,0,160,0z"/>
			<path class="st0" d="M458.7,128H341.3V10.7c0-5.9-4.8-10.7-10.7-10.7h-21.3c-5.9,0-10.7,4.8-10.7,10.7V160
				c0,5.9,4.8,10.7,10.7,10.7h149.3c5.9,0,10.7-4.8,10.7-10.7v-21.3C469.3,132.8,464.6,128,458.7,128z"/>
			<path class="st0" d="M458.7,298.7H309.3c-5.9,0-10.7,4.8-10.7,10.7v149.3c0,5.9,4.8,10.7,10.7,10.7h21.3
				c5.9,0,10.7-4.8,10.7-10.7V341.3h117.3c5.9,0,10.7-4.8,10.7-10.7v-21.3C469.3,303.4,464.6,298.7,458.7,298.7z"/>
			<path class="st0" d="M160,298.7H10.7c-5.9,0-10.7,4.8-10.7,10.7v21.3c0,5.9,4.8,10.7,10.7,10.7H128v117.3
				c0,5.9,4.8,10.7,10.7,10.7H160c5.9,0,10.7-4.8,10.7-10.7V309.3C170.7,303.4,165.9,298.7,160,298.7z"/>
		</g>
	</g>
</g>
</svg>
