<?xml version="1.0" encoding="utf-8"?>
<!-- Generator: Adobe Illustrator 24.3.0, SVG Export Plug-In . SVG Version: 6.00 Build 0)  -->
<svg version="1.1" id="Capa_1" xmlns="http://www.w3.org/2000/svg" xmlns:xlink="http://www.w3.org/1999/xlink" x="0px" y="0px"
	 viewBox="0 0 469.3 469.3" style="enable-background:new 0 0 469.3 469.3;" xml:space="preserve">
<style type="text/css">
	.st0{fill:#FFFFFF;}
</style>
<g>
	<g>
		<g>
			<path class="st0" d="M160,0H10.7C4.8,0,0,4.8,0,10.7V160c0,5.9,4.8,10.7,10.7,10.7H32c5.9,0,10.7-4.8,10.7-10.7V42.7H160
				c5.9,0,10.7-4.8,10.7-10.7V10.7C170.7,4.8,165.9,0,160,0z"/>
			<path class="st0" d="M458.7,0H309.3c-5.9,0-10.7,4.8-10.7,10.7V32c0,5.9,4.8,10.7,10.7,10.7h117.3V160c0,5.9,4.8,10.7,10.7,10.7
				h21.3c5.9,0,10.7-4.8,10.7-10.7V10.7C469.3,4.8,464.6,0,458.7,0z"/>
			<path class="st0" d="M458.7,298.7h-21.3c-5.9,0-10.7,4.8-10.7,10.7v117.3H309.3c-5.9,0-10.7,4.8-10.7,10.7v21.3
				c0,5.9,4.8,10.7,10.7,10.7h149.3c5.9,0,10.7-4.8,10.7-10.7V309.3C469.3,303.4,464.6,298.7,458.7,298.7z"/>
			<path class="st0" d="M160,426.7H42.7V309.3c0-5.9-4.8-10.7-10.7-10.7H10.7c-5.9,0-10.7,4.8-10.7,10.7v149.3
				c0,5.9,4.8,10.7,10.7,10.7H160c5.9,0,10.7-4.8,10.7-10.7v-21.3C170.7,431.4,165.9,426.7,160,426.7z"/>
		</g>
	</g>
</g>
</svg>
