<svg xmlns="http://www.w3.org/2000/svg" viewBox="0 0 359.99 360"><defs><style>.cls-1{fill:#0d3b66;}.cls-2{fill:#c7e2fc;}.cls-3{fill:#ebf7fe;}.cls-4{fill:#4d5d7a;}.cls-5{fill:#8892a0;}.cls-6{fill:#d03c29;}.cls-7{fill:#f9564f;}.cls-8{fill:#669e4f;}.cls-9{fill:#4472b2;}.cls-10{fill:#e47c6e;}.cls-11{fill:#f5b953;}</style></defs><g id="Calque_2" data-name="Calque 2"><g id="Calque_1-2" data-name="Calque 1"><path class="cls-1" d="M192,144V24A24,24,0,0,0,168,0H24A24,24,0,0,0,0,24V336a24,24,0,0,0,24,24H168a24,24,0,0,0,24-24V240"/><polyline class="cls-2" points="174 252 174 306 18 306 18 42 174 42 174 144"/><path class="cls-3" d="M18,263.62c77-6,138-88.13,138-188.62a242.81,242.81,0,0,0-2.28-33H18Z"/><polyline class="cls-4" points="222 144 222 120 246 120 246 144"/><rect class="cls-5" x="78" y="336" width="36" height="12"/><rect class="cls-5" x="78" y="18" width="36" height="12"/><path class="cls-5" d="M240,120H228V108a6,6,0,0,0-6-6H192V90h30a18,18,0,0,1,18,18Z"/><path class="cls-6" d="M306,144H162a54,54,0,1,0,52.61,66h38.77A54,54,0,1,0,306,144Z"/><path class="cls-7" d="M198,198c57.17,0,105.84-21.48,124.19-51.53A54.16,54.16,0,0,0,306,144H162a54,54,0,0,0-50.46,34.91C134.7,190.79,164.91,198,198,198Z"/><rect class="cls-4" x="222" y="180" width="24" height="12"/><path class="cls-4" d="M192,186H174V168H150v18H132v24h18v18h24V210h18Z"/><path class="cls-8" d="M324,180H312a6,6,0,0,0-12,0H288a18,18,0,0,1,36,0Z"/><path class="cls-9" d="M306,234a18,18,0,0,1-18-18h12a6,6,0,0,0,12,0h12a18,18,0,0,1-18,18Z"/><path class="cls-10" d="M288,216a18,18,0,0,1,0-36v12a6,6,0,0,0,0,12Z"/><path class="cls-11" d="M324,216V204a6,6,0,0,0,0-12V180a18,18,0,0,1,0,36Z"/></g></g></svg>