<svg id="Calque_1" data-name="Calque 1" xmlns="http://www.w3.org/2000/svg" viewBox="0 0 54.45 18.8"><defs><style>.cls-1{fill:#05aff2;}</style></defs><path class="cls-1" d="M300.25,411.82c5,.74,9.09,3.22,12.88,6.36,1.37,1.13,2.79,2.22,4.26,3.23a15,15,0,0,0,7.88,2.81v6.4c-1.46-.2-2.94-.31-4.37-.62a23.63,23.63,0,0,1-10.67-5.83,30.06,30.06,0,0,0-6.66-4.79,11.5,11.5,0,0,0-10.38-.16,29,29,0,0,0-7.07,4.6,25.56,25.56,0,0,1-9,5.48,60,60,0,0,1-6.29,1.32v-6.4a14,14,0,0,0,7.34-2.61c1.85-1.3,3.62-2.73,5.38-4.15,3.46-2.77,7.22-4.94,11.71-5.6" transform="translate(-270.82 -411.82)"/></svg>