<svg xmlns="http://www.w3.org/2000/svg" viewBox="0 0 356.3 294.89"><defs><style>.cls-1{isolation:isolate;}.cls-2{fill:#ff6b25;}.cls-3{fill:#613935;}.cls-4{fill:#d3c8c7;}.cls-10,.cls-16,.cls-17,.cls-4,.cls-6,.cls-9{mix-blend-mode:multiply;}.cls-5{fill:#4f231f;}.cls-6{fill:#b9a7a5;}.cls-7{fill:#fffdd9;}.cls-8{fill:#ffa67c;}.cls-9{fill:#e5dedd;}.cls-10{fill:#0d3b66;}.cls-10,.cls-16,.cls-17{opacity:0.55;}.cls-11{fill:#f2cb05;}.cls-12{fill:#fcee8a;}.cls-13{fill:#f4e361;}.cls-14{fill:#d7a957;}.cls-15{fill:#d03c29;}.cls-17{fill:#72408d;}.cls-18,.cls-20{fill:#a62103;}.cls-19{fill:#e7eef2;opacity:0.2;}.cls-20{opacity:0.5;}.cls-21{fill:#dfbf5d;}</style></defs><g class="cls-1"><g id="Calque_2" data-name="Calque 2"><g id="ARTBOARD_2" data-name="ARTBOARD 2"><path class="cls-2" d="M215.74,201.3s-9.74,6-11.68,10.37,5.84,12.82,6.57,16.13,0,3.74-4,1-9.73-12.68-11.07-16.13,2-3.75,5.11-9.94,2.43-13.11,6.94-14.4,3.89-2.16,5.84-.15S219.51,198.13,215.74,201.3Z"/><path class="cls-3" d="M196.59,214.32c.21-1,0-2.28.27-3.3a10.09,10.09,0,0,0,1.06,3.22.2.2,0,0,0,.38-.06c.21-1,.26-2,.45-2.91.34.91.67,1.83,1,2.77.06.17.3.26.38.06a7.31,7.31,0,0,0,.43-1.93,8.83,8.83,0,0,0,1.43,3.42.21.21,0,0,0,.36-.11c.19-1.31-.08-3,.52-4.22a14.35,14.35,0,0,0,1.24,4c1.3,4.41,6,10,6.55,12.52.73,3.31,0,3.74-4,1-3.45-2.36-8.16-10-10.26-14.33A.2.2,0,0,0,196.59,214.32Z"/><path class="cls-4" d="M197,208.09a25,25,0,0,0,3.7-5.35c3.16-6.19,2.43-13.11,6.94-14.4s3.89-2.16,5.84-.15,6.08,9.94,2.31,13.11c0,0-9.74,6-11.68,10.37s5.84,12.82,6.57,16.13,0,3.74-4,1a16,16,0,0,1-3-2.94,35.58,35.58,0,0,1-2.63-8.52C200.24,213.42,199.79,210.22,197,208.09Z"/><path class="cls-4" d="M206.46,207.26a12.9,12.9,0,0,1-4.25.71,7,7,0,0,0-3.64.38,6.53,6.53,0,0,0-2.56,3,12.41,12.41,0,0,0-.5,1.22c-1.24-3.37,2-3.71,5.14-9.85s2.43-13.11,6.94-14.4,3.89-2.16,5.84-.15,6.08,9.94,2.31,13.11a69,69,0,0,0-7,5.06C208,206.69,207.24,207,206.46,207.26Z"/><path class="cls-5" d="M264.76,174.9a23.78,23.78,0,0,1-3.52-5.09c-1.58-3.07-2.92-6.53-5.6-8.69s-4.3-1.68-5.15,2.3a30.56,30.56,0,0,0-.85,8.36c.12,1.77.12,6.62,2.35,9.12s7.1,1.53,7.1,1.53Z"/><path class="cls-6" d="M257.92,171.55a26.59,26.59,0,0,1,4.63,6.28l-3.46,4.6s-4.87,1-7.1-1.53-2.23-7.35-2.35-9.12a25.11,25.11,0,0,1,.33-5.55A23.21,23.21,0,0,1,257.92,171.55Z"/><path class="cls-2" d="M197.57,164.67s-5.52-20.16-20.28-28.42-28.06-5.76-37.79-9.21-13.14-8.26-14.11-11.72-1.63,10.18,5,23.05,17.36,19.39,24.5,20.73,21.25,1.16,29,3.08,9.41,5.56,9.41,5.56Z"/><path class="cls-2" d="M264.89,215.41s-.73,7.35,1.94,8.5,23.73,3,24.94,4.9,1,3.45-6.69,3.31-16.42-1.73-20.92-2-8.28.72-8.64-1.87S261,213.54,264.89,215.41Z"/><path class="cls-3" d="M260.87,176.6s-6.81-7.06-13.5-8.5-9.13.29-7.24,6.49,7.18,13.39,9.67,15.76,4.56,2.17,4.56,2.17Z"/><path class="cls-7" d="M260.34,177.59a26.73,26.73,0,0,0-7.66-5.62c-4.91-2.45-8.52-2.83-9.29-1.2s1.67,7.63,3.86,11.33a28.13,28.13,0,0,0,6.48,7.58C255.4,191,260.34,177.59,260.34,177.59Z"/><path class="cls-2" d="M259.08,177.9a21,21,0,0,0-3.47-2.09c-.88-.4-2.53-.79-3.12-.36,1,1.22,2.48,1.93,3.52,3.14-1.78-.12-3.74-1.26-6,.34,1.58.44,3,.67,4.14,1.89-1.46.4-3.63.1-5.06,2.26,1.16.22,2.79.08,4,.5-.34.25-.6.47-.93.71a6.28,6.28,0,0,0-1.26,1.31,16.87,16.87,0,0,0-1.86,3.64c4-1.58,4.51-.12,4.94-.11.75,0,.35-1.3.67-2.11s-.57-1.8-.21-2.52a21.22,21.22,0,0,1,4.66-6.42"/><path class="cls-2" d="M188.4,179.17c.65-5.38,1.55-13.63,10.95-17.09s20.69,5.86,26.85,14.31,8,15.93,14.6,19,10.06-.68,11.19-3.36a33.34,33.34,0,0,0,1.87-5.86,19,19,0,0,0,.65-2.88,6.16,6.16,0,0,1,.64-2.69l.12-.14c.72-.88,3.55-4.76,7.67-5.91a20.07,20.07,0,0,1,14.6,2c4.3,2.49,6.33,4,9.65,3.65s8.68-3,9.49-2.4.32,2.49-1.46,3.55-30,16.32-34.23,24.19-5.19,12.87-5.27,14.31-12.57,1.05-16,.38-4-6.81-9-8.93-16.38-11.33-21.82-11.9-18.41-7.3-19.46-8.74S187.76,184.55,188.4,179.17Z"/><path class="cls-5" d="M272.34,178.16a8.77,8.77,0,0,1,2.17,2.09,4.76,4.76,0,0,1,1.07,3,1.81,1.81,0,0,1-1.41,1.75,3.74,3.74,0,0,1-2.08-.3,12.49,12.49,0,0,1-1.63-.83c-.59-.36-1.22-.77-1.26-1.63a.49.49,0,0,1,.32-.49,1.15,1.15,0,0,1,.73,0,4.09,4.09,0,0,1,.62.4,9.94,9.94,0,0,0,1.12.64,6.66,6.66,0,0,0,1,.39c.13,0,.26.05.38.09s-.13,0,0,0h.58l.08,0a.32.32,0,0,1,.09,0c.11,0-.09.07,0,0s.12-.07.12-.09-.13.14-.05,0l.06-.06c0,.08-.15.12,0,0s0-.07,0-.07,0,.18,0,0,0-.17,0,0a2.25,2.25,0,0,0,0-.26v-.11c0-.13,0,.13,0,0l-.06-.34a4.92,4.92,0,0,0-.44-1.22c-.49-.88-1.11-1.63-1.67-2.44-.21-.3,0-.8.37-.57Z"/><path class="cls-8" d="M267.87,180.66l-.4-.07-.32-.05h-.23l-.08,0a2.66,2.66,0,0,1-.37.07.14.14,0,0,1-.12-.18.66.66,0,0,1,.75-.43,7.43,7.43,0,0,1,.82.16c.1,0,.16.16.15.27s-.1.23-.2.21Z"/><path class="cls-8" d="M267.68,182.26a2.29,2.29,0,0,0-.64.07,1.38,1.38,0,0,0-.27.11l-.16.08a.47.47,0,0,1-.2.06c-.1,0-.15-.13-.11-.22a.67.67,0,0,1,.14-.19l.18-.11a2.19,2.19,0,0,1,.33-.12,2.25,2.25,0,0,1,.73-.05.17.17,0,0,1,.16.18.18.18,0,0,1-.16.19Z"/><path class="cls-7" d="M273.4,201.73s-5.35,6.05-7.42,12.1-1.82,9.36-2.8,12.1-6.57,5.47-20.44,2.3-26.39-22.61-31.5-25.35-10.47-4-12.41-6.33,1.33-5.76,2.31-5.19S214.4,199,218.9,202.88s12.41,4.76,15,9.8,9,9.79,10.95,9.65,9.13-12.82,11.2-18.44,3.77-8.35,9.61-9.5S273.4,201.73,273.4,201.73Z"/><path class="cls-9" d="M220.09,208.86a86.55,86.55,0,0,0,10.73,8.81c5.18,3.55,9.14,7.6,14.93,9.41,2,.63,5.28,1.86,8.22,2.57a49.21,49.21,0,0,1-11.23-1.42c-13.86-3.17-26.39-22.61-31.5-25.35-1-.52-2-1-2.93-1.42-.22-.33-.45-.65-.67-1C212.52,200.57,216.31,205.22,220.09,208.86Z"/><path class="cls-2" d="M267.2,197.56s-5.84,6-6.69,11.52-3.53,6.33-4.26,9.21-2.19,8.07,0,11.24S270.73,240,275,241.34s7.91,4.17,5.84,5.32-12.77-.57-24.21-6.33-18.73-12.53-19.46-15-.49-5.87-1.83-9.65c-1.58-4.46-5.39-6.86-3.4-8.93s10.58-10.51,15.93-10.22S267.08,194.39,267.2,197.56Z"/><path class="cls-2" d="M214.4,180a22.77,22.77,0,0,1,.73,14.83c-2.43,7.92-7.79,11.52-12.9,11.52s-7.84,0-10.82,3.17c-2.44,2.59-2.56,7.34-1.46,10.94s4.37,10.52,2.79,12.1-3.52-.14-6.08-6.19-4.74-14.4-3.77-17.57,4.87-5.62,4.74-13.68-1.21-17.43,2.68-23.91S211,170.34,214.4,180Z"/><path class="cls-3" d="M183.29,208.35a23.51,23.51,0,0,0,.8,4.43c.07.18.3.08.3-.1a8.76,8.76,0,0,1,.44-3,10.5,10.5,0,0,0,1.2,4.63c.09.15.3.1.31-.1a13.26,13.26,0,0,1,.47-3.08c0,.51.1,1,.18,1.52a18.94,18.94,0,0,1,.34,2.71c0,.24.3.29.35.06.19-.87.3-1.77.47-2.64.11-.53.24-1.06.37-1.58.06.88.11,1.75.25,2.62a14,14,0,0,0,.52,2.15,15.36,15.36,0,0,0,.66,4.43c1.09,3.6,4.37,10.52,2.79,12.1s-3.52-.14-6.08-6.19c-2.43-5.76-4.52-13.59-3.88-17.06A5.08,5.08,0,0,1,183.29,208.35Z"/><path class="cls-7" d="M125.39,115.32c1,3.46,4.38,8.26,14.11,11.72,6.52,2.31,14.65,2,23.75,4a36.26,36.26,0,0,1-11.49,2.94c4.25.71,6.91,6.64,11.82,6.91a39.88,39.88,0,0,1-10.52.73,16.27,16.27,0,0,0,7.92,6.29,18.94,18.94,0,0,1-9.94-.06c1.75,4,4.51,5.54,8,6.79a17.65,17.65,0,0,1-9.62-1.79c1.61,3.87,7.53,4.68,10.6,6.95-1.92-.17-3.66-.38-5.11-.66-7.14-1.34-17.85-7.87-24.5-20.73S124.41,111.87,125.39,115.32Z"/><path class="cls-4" d="M267.89,209.62a7.41,7.41,0,0,1-.49-1.62c-.84.12-1.61-.7-1.9-1.64a7.89,7.89,0,0,1-.11-3,2.84,2.84,0,0,1-3.77-3.51,5.93,5.93,0,0,1,1-2.85c.51-.5,1.21-.37,1.87-.83a5,5,0,0,1,2.77-.67c.87,0,1.75-.07,2.62,0,2.58,2.1,3.53,6.26,3.53,6.26A49.1,49.1,0,0,0,267.89,209.62Z"/><path class="cls-7" d="M295.87,178.31s-9.49,5-17.44,7.2-13.14,3.07-17.19,6.62-6.25,6.63-4.14,7.11,5.76-1.64,5.76-1.64-3,5.19,0,4.8a10.2,10.2,0,0,0,5.35-2.88s-3.24,5.48-.4,5.38,5.67-4.8,5.67-4.8-5.27,7.2-1.78,6.53,11.19-12,15.17-16.23a136.9,136.9,0,0,1,11.51-10.17C298.71,179.94,295.87,178.31,295.87,178.31Z"/><path class="cls-5" d="M295.29,178.28a7.78,7.78,0,0,0,2.57-2.42c.81-1.39,1.42-2.55,2.71-1.63a4.13,4.13,0,0,1-.16,6.14,3.1,3.1,0,0,1-4.18-.12C295.16,179.45,294.94,178.55,295.29,178.28Z"/><path class="cls-5" d="M290.43,187.86a4.25,4.25,0,0,1-2.12.16,2.69,2.69,0,0,1-1-.45,1.46,1.46,0,0,1-.63-1.2c0-.15.11-.31.26-.3a.79.79,0,0,1,.25.05l.09,0-.08,0s.12,0,.16,0a2.53,2.53,0,0,1,.49.31,3.07,3.07,0,0,0,.39.23s.1,0,0,0l.09,0,.23.09a5.86,5.86,0,0,0,1.75.31c.33,0,.42.6.08.69Z"/><path class="cls-4" d="M188.43,207a6.92,6.92,0,0,1,2.88-2.56c5.26-2.44,11.61.81,16.44-3.36a14.44,14.44,0,0,0,4.43-8.8,40.9,40.9,0,0,0,.21-7.67c.3,1.33,1.26,3.39,1.47,4.19,1.19,4.64.85,9.39-2.18,12.88a13,13,0,0,1-9.45,4.63c-5.11,0-7.84,0-10.82,3.17-2.44,2.59-2.56,7.34-1.46,10.94.23.79.58,1.74,1,2.75a30.58,30.58,0,0,1-2.36-4.42c-1.4-3.32-1.88-7.51-.66-10.78C188.05,207.67,188.23,207.34,188.43,207Z"/><path class="cls-3" d="M273.22,230.05c.17-.07.22-.43,0-.48a8.68,8.68,0,0,1-3-.9,22,22,0,0,0,3.37-.79c.18-.06.19-.4,0-.45a8.39,8.39,0,0,1-1.2-.49,6.23,6.23,0,0,0,1.72-.7c.11-.08.1-.33,0-.36a3.18,3.18,0,0,1-1.8-.89c7.16,1.08,18.62,2.45,19.51,3.82,1.22,1.87,1,3.45-6.69,3.31a133.89,133.89,0,0,1-13.83-1.23A15.12,15.12,0,0,0,273.22,230.05Z"/><path class="cls-3" d="M261.05,239.91a4.47,4.47,0,0,0,2.18-.11.21.21,0,0,0,.1-.29c-.08-.18-.17-.36-.26-.52a4.59,4.59,0,0,1,1.41.24c.14.06.27-.16.19-.3a7,7,0,0,0-1.47-1.76,4.57,4.57,0,0,1-1.15-1.52c1.69.54,3.23,1.83,5,1.81a47.44,47.44,0,0,0,7.92,3.88c4.26,1.29,7.91,4.17,5.84,5.32-1.58.89-8.27.07-16.46-3C263.36,242.33,262.15,241.14,261.05,239.91Z"/><path class="cls-10" d="M356.29,200.38c.44-19.79-17.21-83.7-127.35-86.13v-.75s1.13-15.28-3.07-20.78c-1.4-1.84-6.44-2.94-12.78-3.41v0s3-47.18,5.59-51.69c4.21-7.42,44.82,4.89,52.05,1.59s8-18.88,5.52-26.76-68.1.31-78.82,9.45S186,89.57,186,90.6c-3.6.67-6.43,1.54-7.86,2.58C171.53,98,171.38,119,171.38,119c-58.4,11.82-89.88,43.4-104.94,68,0,0-16.29-9.12-30.63-13.87-7.9-2.62-15.19-3.92-18.87-1.64-10.33,6.41-11.75,31-11.21,50.48s6.47,43.34,18.78,46.48c2.82.72,8.86-1.55,15.64-4.9C53.6,256.85,70,246,70,246c25.84,26,81.45,49.33,142.47,48.89q9.92-.06,19.36-1C305.17,287.12,355.29,245.21,356.29,200.38Z"/><path class="cls-11" d="M86.75,184.22a25.32,25.32,0,0,0,20.79,26.3c.67.13,1.37.23,2.07.3a25.36,25.36,0,1,0,4.9-50.48c-.48-.05-1-.09-1.46-.1a25.36,25.36,0,0,0-26.23,22.89c0,.36-.06.72-.08,1.09ZM226.16,284.66q-9.42.88-19.35,1c-61,.45-116.63-22.91-142.47-48.88-9.65-9.68-15.14-19.72-15.23-29,0-4.64,3.23-16.23,11.7-30,15.06-24.57,46.53-56.15,104.94-68a245.61,245.61,0,0,1,41.11-4.61c5.7-.18,11.17-.2,16.44-.09,110.15,2.42,127.8,66.33,127.36,86.13C349.66,236,299.53,277.87,226.16,284.66Zm88.37-96.31a50.72,50.72,0,1,0-55.39,45.58A50.73,50.73,0,0,0,314.53,188.35Zm-111-4.77a24.23,24.23,0,0,0,.1-3.4,25.36,25.36,0,0,0-22.89-24.3c-.43,0-.85-.07-1.28-.09A25.36,25.36,0,0,0,153,178.67c0,.36-.06.73-.09,1.08a25.36,25.36,0,0,0,20.79,26.32c.68.13,1.38.23,2.09.3A25.36,25.36,0,0,0,203.51,183.58Z"/><path class="cls-12" d="M310.66,181.68a3.14,3.14,0,1,1-6.28.24,3.14,3.14,0,0,1,6.28-.24Z"/><path class="cls-12" d="M306.31,194.2a3.14,3.14,0,1,1-4,2A3.15,3.15,0,0,1,306.31,194.2Z"/><path class="cls-12" d="M307.07,165.42a3.14,3.14,0,1,1-4.11-1.68A3.15,3.15,0,0,1,307.07,165.42Z"/><path class="cls-12" d="M299.84,208.37a3.15,3.15,0,1,1-4.42.47A3.15,3.15,0,0,1,299.84,208.37Z"/><path class="cls-12" d="M298,151.45a3.14,3.14,0,1,1-4.44-.13A3.16,3.16,0,0,1,298,151.45Z"/><path class="cls-12" d="M288.79,219.35a3.14,3.14,0,1,1-4.3-1.11A3.13,3.13,0,0,1,288.79,219.35Z"/><path class="cls-12" d="M284.58,141.57a3.14,3.14,0,1,1-4.21,1.43A3.14,3.14,0,0,1,284.58,141.57Z"/><path class="cls-12" d="M274.6,225.77a3.14,3.14,0,1,1-3.64-2.56A3.16,3.16,0,0,1,274.6,225.77Z"/><path class="cls-12" d="M269,140.1a3.14,3.14,0,1,1-3-3.26A3.14,3.14,0,0,1,269,140.1Z"/><path class="cls-12" d="M256.55,223.1a3.14,3.14,0,1,1-3.67,2.51A3.14,3.14,0,0,1,256.55,223.1Z"/><path class="cls-13" d="M270.64,3.17c2.51,7.89,1.72,23.46-5.52,26.77s-47.85-9-52.05-1.6c-2.56,4.51-5.6,51.7-5.6,51.7v0a118.17,118.17,0,0,0-27.07,1.29c0-1,.79-59.65,11.42-68.72S268.13-4.71,270.64,3.17Zm-70.7,46.74a4.44,4.44,0,1,0-4.85,4A4.44,4.44,0,0,0,199.94,49.91ZM198.2,67.85a4.44,4.44,0,1,0-4.85,4A4.44,4.44,0,0,0,198.2,67.85Z"/><path class="cls-12" d="M243.09,217.94a3.14,3.14,0,1,1-4.32,1.05A3.14,3.14,0,0,1,243.09,217.94Z"/><path class="cls-12" d="M251.59,141.65a3.14,3.14,0,1,1-4.05-1.83A3.13,3.13,0,0,1,251.59,141.65Z"/><path class="cls-12" d="M232.3,208.37a3.14,3.14,0,1,1-4.41-.53A3.14,3.14,0,0,1,232.3,208.37Z"/><path class="cls-12" d="M235,150.89a3.14,3.14,0,1,1-4.45.07A3.15,3.15,0,0,1,235,150.89Z"/><path class="cls-12" d="M225.57,195.63a3.15,3.15,0,1,1-3.95-2A3.14,3.14,0,0,1,225.57,195.63Z"/><path class="cls-12" d="M225.43,163.16a3.15,3.15,0,1,1-4.14,1.64A3.15,3.15,0,0,1,225.43,163.16Z"/><path class="cls-12" d="M223.74,181.33a3.14,3.14,0,1,1-6.27-.33,3.14,3.14,0,0,1,6.27.33Z"/><path class="cls-14" d="M180.4,81.35a118.17,118.17,0,0,1,27.07-1.29c6.33.47,11.38,1.57,12.78,3.4,4.2,5.51,3.07,20.79,3.07,20.79l0,.75c-5.27-.11-10.74-.09-16.44.09a245.61,245.61,0,0,0-41.11,4.61s.15-21,6.79-25.78C174,82.89,176.79,82,180.4,81.35Z"/><path class="cls-12" d="M199.4,186.5a1.57,1.57,0,1,1-2,1A1.56,1.56,0,0,1,199.4,186.5Z"/><path class="cls-12" d="M200,178.74a1.57,1.57,0,1,1-1.51,1.62A1.56,1.56,0,0,1,200,178.74Z"/><path class="cls-12" d="M194.18,196a1.58,1.58,0,0,1,2-2.45,1.58,1.58,0,0,1-2,2.45Z"/><path class="cls-12" d="M199.78,172.11a1.57,1.57,0,1,1-2.06-.84A1.56,1.56,0,0,1,199.78,172.11Z"/><path class="cls-12" d="M193,165.06a1.57,1.57,0,1,1-.07,2.22A1.58,1.58,0,0,1,193,165.06Z"/><path class="cls-12" d="M190.64,199.08a1.56,1.56,0,0,1-.55,2.15,1.57,1.57,0,1,1-1.6-2.71A1.57,1.57,0,0,1,190.64,199.08Z"/><circle class="cls-15" cx="195.52" cy="49.49" r="4.44"/><path class="cls-15" d="M194.21,63a4.45,4.45,0,1,1-4.85,4A4.44,4.44,0,0,1,194.21,63Z"/><path class="cls-12" d="M186.43,160.9a1.57,1.57,0,1,1,.72,2.1A1.57,1.57,0,0,1,186.43,160.9Z"/><path class="cls-12" d="M180.45,202.82a1.59,1.59,0,0,1,1.28-1.82,1.57,1.57,0,0,1,.54,3.1A1.58,1.58,0,0,1,180.45,202.82Z"/><path class="cls-12" d="M180.72,159.45a1.57,1.57,0,1,1-1.5-1.63h.07A1.58,1.58,0,0,1,180.72,159.45Z"/><path class="cls-12" d="M174.52,201a1.59,1.59,0,0,1,1.26,1.83,1.61,1.61,0,0,1-1.71,1.29.58.58,0,0,0-.14,0,1.57,1.57,0,0,1,.45-3.11Z"/><path class="cls-12" d="M166.16,201.05a1.57,1.57,0,1,1,2.16-.53A1.57,1.57,0,0,1,166.16,201.05Z"/><path class="cls-12" d="M171.12,162.24a1.56,1.56,0,1,1,.92-2A1.56,1.56,0,0,1,171.12,162.24Z"/><path class="cls-12" d="M162.4,193.59a1.57,1.57,0,1,1-2.21-.27A1.59,1.59,0,0,1,162.4,193.59Z"/><path class="cls-12" d="M163.75,164.85a1.57,1.57,0,0,1,0,2.22,1.57,1.57,0,1,1-2.26-2.19A1.56,1.56,0,0,1,163.75,164.85Z"/><path class="cls-12" d="M159,187.21a1.57,1.57,0,1,1-2-1A1.57,1.57,0,0,1,159,187.21Z"/><path class="cls-12" d="M159,171a1.57,1.57,0,0,1-1.25,2.87A1.57,1.57,0,1,1,159,171Z"/><path class="cls-12" d="M155,179.9a1.57,1.57,0,0,1,1.64-1.49,1.59,1.59,0,0,1,1.5,1.66,1.57,1.57,0,0,1-3.14-.17Z"/><path class="cls-12" d="M133.2,191a1.58,1.58,0,1,1-2,1A1.57,1.57,0,0,1,133.2,191Z"/><path class="cls-12" d="M135.37,184.71a1.57,1.57,0,1,1-1.63-1.52A1.56,1.56,0,0,1,135.37,184.71Z"/><path class="cls-12" d="M132.73,178.63a1.57,1.57,0,0,1-1.21-2.9,1.57,1.57,0,0,1,1.21,2.9Z"/><path class="cls-12" d="M130.2,200.26a1.58,1.58,0,1,1-.24-2.21A1.57,1.57,0,0,1,130.2,200.26Z"/><path class="cls-12" d="M129,171.81a1.6,1.6,0,0,1-2.23-.06,1.58,1.58,0,0,1,2.29-2.17A1.6,1.6,0,0,1,129,171.81Z"/><path class="cls-12" d="M124.43,203.54a1.57,1.57,0,1,1-2.14-.56A1.57,1.57,0,0,1,124.43,203.54Z"/><path class="cls-12" d="M120.23,165.37a1.57,1.57,0,1,1,.72,2.09A1.56,1.56,0,0,1,120.23,165.37Z"/><path class="cls-12" d="M117.34,206.74a1.57,1.57,0,1,1-1.82-1.28A1.57,1.57,0,0,1,117.34,206.74Z"/><path class="cls-12" d="M108.32,205.41a1.57,1.57,0,0,1-.43,3.11l-.15,0a1.57,1.57,0,0,1-1.26-1.83,1.58,1.58,0,0,1,1.7-1.29Z"/><path class="cls-12" d="M114.52,163.91a1.58,1.58,0,1,1-1.51-1.63A1.57,1.57,0,0,1,114.52,163.91Z"/><path class="cls-12" d="M102.11,205a1.57,1.57,0,1,1-.52-2.16A1.57,1.57,0,0,1,102.11,205Z"/><path class="cls-12" d="M105.83,164.69a1.56,1.56,0,0,1-.9,2,1.59,1.59,0,0,1-2-.92,1.57,1.57,0,0,1,2.94-1.1Z"/><path class="cls-12" d="M96.19,198.05a1.57,1.57,0,1,1-2.21-.27A1.56,1.56,0,0,1,96.19,198.05Z"/><path class="cls-12" d="M97.54,169.3a1.57,1.57,0,1,1-2.21,0A1.58,1.58,0,0,1,97.54,169.3Z"/><path class="cls-12" d="M92.82,191.68a1.57,1.57,0,1,1-2-1A1.56,1.56,0,0,1,92.82,191.68Z"/><path class="cls-12" d="M92.76,175.44a1.58,1.58,0,1,1-2.07.81A1.58,1.58,0,0,1,92.76,175.44Z"/><path class="cls-12" d="M91.91,184.53a1.57,1.57,0,1,1-1.49-1.65A1.58,1.58,0,0,1,91.91,184.53Z"/><g class="cls-16"><path class="cls-17" d="M269.71,136.3a50.72,50.72,0,1,0,45.58,55.39A50.73,50.73,0,0,0,269.71,136.3ZM311.42,185a3.14,3.14,0,1,1-3.26-3A3.16,3.16,0,0,1,311.42,185Zm-7.7-17.94a3.14,3.14,0,1,1-1.68,4.11A3.14,3.14,0,0,1,303.72,167.08Zm-9.41-12.42a3.15,3.15,0,1,1-.13,4.44A3.14,3.14,0,0,1,294.31,154.66Zm-13.18-8.32a3.15,3.15,0,1,1,1.45,4.21A3.14,3.14,0,0,1,281.13,146.34Zm-14.43-6.16a3.14,3.14,0,1,1-3.26,3A3.14,3.14,0,0,1,266.7,140.18Zm-18.4,3a3.14,3.14,0,1,1-1.83,4A3.14,3.14,0,0,1,248.3,143.16Zm-26.24,25a3.13,3.13,0,1,1,1.62,4.13A3.14,3.14,0,0,1,222.06,168.14Zm-3.83,16.2a3.14,3.14,0,1,1,3,3.31A3.13,3.13,0,0,1,218.23,184.34Zm6.06,18.58a3.14,3.14,0,1,1-1.9-6,3.14,3.14,0,0,1,1.9,6Zm7.12-44.18a3.14,3.14,0,1,1,4.43-.06A3.12,3.12,0,0,1,231.41,158.74Zm1.13,57.39a3.15,3.15,0,1,1,.53-4.42A3.15,3.15,0,0,1,232.54,216.13Zm12.37,9.47a3.15,3.15,0,1,1-1-4.32A3.16,3.16,0,0,1,244.91,225.6Zm11.24,7a3.14,3.14,0,1,1,3.67-2.51A3.13,3.13,0,0,1,256.15,232.62Zm16.66.13a3.15,3.15,0,1,1,2.55-3.64A3.15,3.15,0,0,1,272.81,232.75ZM288.44,227a3.14,3.14,0,1,1,1.12-4.31A3.14,3.14,0,0,1,288.44,227Zm12.63-10.87a3.14,3.14,0,1,1-.47-4.42A3.14,3.14,0,0,1,301.07,216.13Zm8-14.62a3.14,3.14,0,1,1-2-4A3.15,3.15,0,0,1,309.07,201.51Z"/><path class="cls-17" d="M180.51,158c-.43,0-.85-.07-1.28-.09a25.36,25.36,0,0,0-26.41,22.88c0,.36-.06.72-.08,1.08a25.33,25.33,0,0,0,20.78,26.31,17.82,17.82,0,0,0,2.09.3,25.34,25.34,0,0,0,27.69-22.79,24.11,24.11,0,0,0,.11-3.39A25.37,25.37,0,0,0,180.51,158Zm17,15.39a1.57,1.57,0,1,1-.84,2A1.56,1.56,0,0,1,197.51,173.43Zm-4.7-6.22a1.57,1.57,0,0,1,2.22.08,1.55,1.55,0,0,1-.07,2.21,1.57,1.57,0,0,1-2.22-.06A1.59,1.59,0,0,1,192.81,167.21Zm-6.59-4.15a1.57,1.57,0,0,1,2.83,1.38,1.57,1.57,0,0,1-2.83-1.38ZM179,160h.07a1.47,1.47,0,1,1-.07,0Zm-9.2,1.49a1.57,1.57,0,1,1-.92,2A1.57,1.57,0,0,1,169.81,161.46ZM161.32,167a1.57,1.57,0,1,1,2.26,2.19,1.57,1.57,0,0,1-2.26-2.19ZM156.68,174a1.57,1.57,0,1,1,2.88,1.24,1.57,1.57,0,1,1-2.88-1.24Zm-1.91,8.09a1.56,1.56,0,0,1,1.64-1.48,1.57,1.57,0,1,1-.16,3.14A1.56,1.56,0,0,1,154.77,182.05Zm3,9.3a1.57,1.57,0,1,1,1-2A1.58,1.58,0,0,1,157.79,191.35Zm4.13,6.6a1.57,1.57,0,1,1,.27-2.2A1.58,1.58,0,0,1,161.92,198Zm6.19,4.73a1.57,1.57,0,1,1-.53-2.15A1.57,1.57,0,0,1,168.11,202.68Zm5.75,3.54-.14,0a1.58,1.58,0,0,1,.45-3.12l.14,0a1.57,1.57,0,0,1-.45,3.11Zm8.2,0a1.57,1.57,0,0,1-.54-3.1,1.57,1.57,0,0,1,.54,3.1Zm7.82-2.87a1.59,1.59,0,0,1-2.16-.56,1.57,1.57,0,1,1,2.16.56Zm6.31-5.44a1.58,1.58,0,1,1-.24-2.21A1.57,1.57,0,0,1,196.19,198Zm4-7.3a1.57,1.57,0,1,1-1-2A1.58,1.58,0,0,1,200.19,190.65Zm-.33-6.62a1.57,1.57,0,1,1,1.5-1.63A1.56,1.56,0,0,1,199.86,184Z"/><path class="cls-17" d="M115.38,162.6c-.48,0-1-.09-1.46-.1a25.36,25.36,0,0,0-26.23,22.89c0,.37-.06.72-.09,1.09h0a25.33,25.33,0,0,0,20.8,26.3,17.48,17.48,0,0,0,2.07.3,25.35,25.35,0,0,0,27.69-22.79,24,24,0,0,0,.1-3.38A25.36,25.36,0,0,0,115.38,162.6Zm17,15.39a1.57,1.57,0,1,1-.84,2.06A1.56,1.56,0,0,1,132.39,178Zm-4.71-6.21a1.57,1.57,0,1,1-.06,2.23A1.58,1.58,0,0,1,127.68,171.78Zm-6.58-4.15a1.57,1.57,0,1,1,.72,2.09A1.57,1.57,0,0,1,121.1,167.63Zm-7.22-3.09a1.57,1.57,0,1,1-1.64,1.51A1.57,1.57,0,0,1,113.88,164.54Zm-9.2,1.49a1.57,1.57,0,0,1,1.11,2.94,1.57,1.57,0,1,1-1.11-2.94ZM96.2,171.6a1.57,1.57,0,1,1,0,2.22A1.58,1.58,0,0,1,96.2,171.6Zm-4.64,6.92a1.57,1.57,0,1,1,.81,2.07A1.58,1.58,0,0,1,91.56,178.52Zm-1.92,8.1a1.57,1.57,0,1,1,1.49,1.66A1.57,1.57,0,0,1,89.64,186.62Zm3,9.29a1.57,1.57,0,1,1-.94-3,1.57,1.57,0,0,1,.94,3Zm4.13,6.6a1.57,1.57,0,1,1,.26-2.2A1.57,1.57,0,0,1,96.8,202.51Zm6.18,4.74a1.57,1.57,0,1,1-.52-2.16A1.57,1.57,0,0,1,103,207.25Zm5.77,3.53-.15,0a1.57,1.57,0,0,1-1.25-1.83,1.58,1.58,0,0,1,1.7-1.29l.14,0a1.57,1.57,0,0,1-.44,3.11Zm8.17.05a1.57,1.57,0,1,1,1.29-1.83A1.58,1.58,0,0,1,116.92,210.83Zm7.83-2.88a1.57,1.57,0,0,1-1.59-2.71,1.57,1.57,0,0,1,1.59,2.71Zm6.31-5.43a1.57,1.57,0,1,1-.23-2.21A1.57,1.57,0,0,1,131.06,202.52Zm4-7.31a1.57,1.57,0,1,1-1-2A1.57,1.57,0,0,1,135.06,195.21Zm-.34-6.61a1.58,1.58,0,1,1,1.52-1.63A1.58,1.58,0,0,1,134.72,188.6Z"/></g><path class="cls-18" d="M269,133a50.72,50.72,0,1,1-55.39,45.58A50.73,50.73,0,0,1,269,133Zm38.68,52a3.14,3.14,0,1,0-.24-6.28,3.14,3.14,0,0,0,.24,6.28Zm.68,13.22a3.14,3.14,0,1,0-4,2A3.15,3.15,0,0,0,308.31,198.17Zm-2.92-28.63a3.14,3.14,0,1,0-4.12-1.69A3.15,3.15,0,0,0,305.39,169.54Zm-5.09,43.25a3.14,3.14,0,1,0-4.42.47A3.15,3.15,0,0,0,300.3,212.79Zm-2.44-56.89a3.14,3.14,0,1,0-4.45-.14A3.16,3.16,0,0,0,297.86,155.9Zm-10.18,67.76a3.14,3.14,0,1,0-4.3-1.12A3.13,3.13,0,0,0,287.68,223.66Zm10.5-36.9a34.3,34.3,0,1,0-37.45,30.83A34.29,34.29,0,0,0,298.18,186.76Zm-12.16-41a3.15,3.15,0,1,0-4.21,1.44A3.14,3.14,0,0,0,286,145.77Zm-14,83.64a3.15,3.15,0,1,0-3.63-2.57A3.16,3.16,0,0,0,272,229.41Zm-6.35-86.29a3.14,3.14,0,1,0-3-3.27A3.14,3.14,0,0,0,265.69,143.12Zm-6.64,83.65a3.14,3.14,0,1,0-3.67,2.51A3.14,3.14,0,0,0,259.05,226.77Zm-14.91-4.51a3.14,3.14,0,1,0-4.31,1.05A3.14,3.14,0,0,0,244.14,222.26Zm5.62-76.57a3.14,3.14,0,1,0-4-1.83A3.13,3.13,0,0,0,249.76,145.69Zm-18,67.1a3.14,3.14,0,1,0-4.41-.53A3.14,3.14,0,0,0,231.77,212.79Zm3.31-57.45a3.14,3.14,0,1,0-4.44.06A3.15,3.15,0,0,0,235.08,155.34Zm-11.56,44.24a3.14,3.14,0,1,0-4-2.05A3.14,3.14,0,0,0,223.52,199.58Zm3.53-32.28a3.14,3.14,0,1,0-4.13,1.63A3.15,3.15,0,0,0,227.05,167.3Zm-6.62,17a3.14,3.14,0,1,0,.33-6.27,3.14,3.14,0,0,0-.33,6.27Z"/><circle class="cls-19" cx="264.04" cy="183.45" r="34.3" transform="translate(-56.41 209.58) rotate(-39.45)"/><path class="cls-20" d="M198.94,174.16a1.57,1.57,0,1,0-2.06-.84A1.56,1.56,0,0,0,198.94,174.16Zm-10.41-14a1.57,1.57,0,1,0,.72,2.1A1.57,1.57,0,0,0,188.53,160.18Zm6.64,7.16a1.57,1.57,0,1,0-2.15-2.28,1.58,1.58,0,0,0-.07,2.22A1.55,1.55,0,0,0,195.17,167.34Zm-14.45-11.46a25.36,25.36,0,0,1,22.89,24.3l-2,.06a1.57,1.57,0,0,0-3.13.12l-3-.19a17.15,17.15,0,0,0-15.47-16.11L179,164l.07-3a1.57,1.57,0,0,0,.2-3.14l.15-2C179.87,155.81,180.29,155.84,180.72,155.88Z"/><path class="cls-19" d="M195.4,180.17a16.34,16.34,0,0,1-.06,2.61,17.15,17.15,0,0,1-18.73,15.41,16.56,16.56,0,0,1-1.74-.25,17.16,17.16,0,0,1-13.73-17.6c0-.29,0-.58.06-.87A17.14,17.14,0,0,1,179,164l.91.07A17.15,17.15,0,0,1,195.4,180.17Z"/><path class="cls-20" d="M196.39,195.79a1.57,1.57,0,1,0-2.44-2,1.57,1.57,0,1,0,2.44,2Zm4-7.3a1.57,1.57,0,0,0-1-2,1.57,1.57,0,1,0,1,2ZM182.27,204.1a1.57,1.57,0,0,0-.54-3.1,1.57,1.57,0,0,0,.54,3.1Zm7.82-2.87a1.57,1.57,0,0,0-1.6-2.71,1.57,1.57,0,1,0,1.6,2.71Zm13.42-17.65a25.36,25.36,0,0,1-27.69,22.79c-.71-.07-1.41-.17-2.09-.3l.34-2a1.61,1.61,0,0,0,1.71-1.29,1.59,1.59,0,0,0-1.26-1.83l-.14,0,.49-3a16.56,16.56,0,0,0,1.74.25,17.15,17.15,0,0,0,18.73-15.41,16.34,16.34,0,0,0,.06-2.61l3,.19a1.55,1.55,0,0,0,1.63,1.51,1.57,1.57,0,0,0,1.5-1.63l2-.06A24.23,24.23,0,0,1,203.51,183.58Z"/><path class="cls-20" d="M159,187.21a1.58,1.58,0,0,0-2-1,1.57,1.57,0,1,0,2,1Zm.89,8.32a1.57,1.57,0,1,0,.27-2.21A1.59,1.59,0,0,0,159.92,195.53Zm6.24,5.52a1.57,1.57,0,1,0-.53-2.16A1.56,1.56,0,0,0,166.16,201.05Zm7.57,5a25.36,25.36,0,0,1-20.79-26.32l2,.15a1.57,1.57,0,0,0,3.14.17l3,.27a17.16,17.16,0,0,0,13.73,17.6l-.49,3a1.57,1.57,0,0,0-.45,3.11.58.58,0,0,1,.14,0Z"/><path class="cls-20" d="M157.71,173.86A1.57,1.57,0,0,0,159,171a1.57,1.57,0,1,0-1.25,2.87Zm3.82-9a1.57,1.57,0,1,0,2.26,2.19,1.57,1.57,0,0,0-2.26-2.19Zm8.49-5.57a1.56,1.56,0,1,0,2,.91A1.57,1.57,0,0,0,170,159.31Zm-13.4,19.1A1.57,1.57,0,0,0,155,179.9l-2-.15c0-.35.05-.72.09-1.08a25.36,25.36,0,0,1,26.41-22.88l-.15,2h-.07a1.57,1.57,0,1,0-.13,3.14l-.07,3a17.14,17.14,0,0,0-17.82,15.48c0,.29,0,.58-.06.87l-3-.27A1.59,1.59,0,0,0,156.62,178.41Z"/><path class="cls-19" d="M129.19,184.62a16.46,16.46,0,0,1-.06,2.62,17.15,17.15,0,0,1-18.73,15.41c-.59-.06-1.17-.15-1.73-.26A17.15,17.15,0,0,1,94.93,184.8c0-.28,0-.59.06-.88a17.16,17.16,0,0,1,17.82-15.48l.91.07A17.16,17.16,0,0,1,129.19,184.62Z"/><path class="cls-18" d="M129,171.81a1.58,1.58,0,0,0-2.17-2.29,1.58,1.58,0,0,0-.06,2.23A1.6,1.6,0,0,0,129,171.81Zm1.7,6a1.57,1.57,0,1,0,2.89-1.22,1.56,1.56,0,0,0-2-.84A1.57,1.57,0,0,0,130.68,177.79Zm-16.17-17.45a25.37,25.37,0,0,1,22.9,24.31l-2,.06a1.57,1.57,0,1,0-3.14.11l-3-.2a17.16,17.16,0,0,0-15.47-16.11l-.91-.07.07-3a1.57,1.57,0,1,0,.13-3.13l0-2C113.53,160.25,114,160.29,114.51,160.34Zm7.83,4.3a1.58,1.58,0,0,0-2.11.73,1.56,1.56,0,0,0,.72,2.09,1.57,1.57,0,1,0,1.39-2.82Z"/><path class="cls-18" d="M134.19,193a1.57,1.57,0,1,0-2,1A1.57,1.57,0,0,0,134.19,193Zm-10.31,12.74a1.57,1.57,0,1,0-2.15-.56A1.57,1.57,0,0,0,123.88,205.69Zm4.11-5.2a1.57,1.57,0,1,0-.24-2.21A1.57,1.57,0,0,0,128,200.49ZM137.31,188a25.37,25.37,0,0,1-27.7,22.79c-.7-.07-1.4-.17-2.07-.3l.35-2a1.57,1.57,0,0,0,.43-3.11l-.14,0,.49-3c.56.11,1.14.2,1.73.26a17.15,17.15,0,0,0,18.73-15.41,16.46,16.46,0,0,0,.06-2.62l3,.2a1.57,1.57,0,1,0,3.14-.11l2-.06A25.6,25.6,0,0,1,137.31,188Zm-21.25,20.53a1.57,1.57,0,1,0-1.82-1.28A1.57,1.57,0,0,0,116.06,208.56Z"/><path class="cls-18" d="M92.82,191.68a1.56,1.56,0,0,0-2-1,1.57,1.57,0,1,0,2,1Zm.91,8.32a1.57,1.57,0,1,0,.25-2.22A1.56,1.56,0,0,0,93.73,200Zm6.23,5.52a1.57,1.57,0,1,0-.53-2.16A1.57,1.57,0,0,0,100,205.52Zm-5-20.72a17.15,17.15,0,0,0,13.74,17.59l-.49,3a1.58,1.58,0,0,0-1.7,1.29,1.57,1.57,0,0,0,1.26,1.83l.15,0-.35,2a25.32,25.32,0,0,1-20.79-26.3l2,.14a1.57,1.57,0,1,0,3.14.17Z"/><path class="cls-18" d="M91.5,178.33a1.58,1.58,0,1,0-.81-2.08A1.58,1.58,0,0,0,91.5,178.33Zm6-9a1.57,1.57,0,1,0,0,2.23A1.56,1.56,0,0,0,97.54,169.3Zm8.29-4.61a1.57,1.57,0,0,0-2.94,1.1,1.59,1.59,0,0,0,2,.92A1.56,1.56,0,0,0,105.83,164.69Zm7,3.75A17.16,17.16,0,0,0,95,183.92c0,.29,0,.6-.06.88l-3-.27a1.57,1.57,0,0,0-3.14-.17l-2-.14h0c0-.37,0-.73.08-1.09a25.36,25.36,0,0,1,26.23-22.89l0,2a1.57,1.57,0,1,0-.13,3.13Z"/><path class="cls-21" d="M49.11,207.7c.09,9.32,5.58,19.36,15.23,29,0,0-16.37,10.85-29.83,17.49h0c-22.13-35.75-4.34-90.42-4.34-90.42,14.34,4.76,30.63,13.87,30.63,13.87C52.34,191.47,49.07,203.06,49.11,207.7Z"/><path class="cls-15" d="M34.52,254.22h0c-6.78,3.35-12.81,5.61-15.63,4.89C6.57,256,.63,232.12.1,212.65S1,168.58,11.31,162.17c3.67-2.28,11-1,18.87,1.63C30.18,163.8,12.39,218.47,34.52,254.22Z"/></g></g></g></svg>